<svg id="visual" viewBox="0 0 960 540" width="960" height="540" xmlns="http://www.w3.org/2000/svg" xmlns:xlink="http://www.w3.org/1999/xlink" version="1.1"><rect x="0" y="0" width="960" height="540" fill="#000"></rect><path d="M0 96L22.8 100.8C45.7 105.7 91.3 115.3 137 124C182.7 132.7 228.3 140.3 274 137.3C319.7 134.3 365.3 120.7 411.2 110.8C457 101 503 95 548.8 98.5C594.7 102 640.3 115 686 120.3C731.7 125.7 777.3 123.3 823 113.3C868.7 103.3 914.3 85.7 937.2 76.8L960 68L960 0L937.2 0C914.3 0 868.7 0 823 0C777.3 0 731.7 0 686 0C640.3 0 594.7 0 548.8 0C503 0 457 0 411.2 0C365.3 0 319.7 0 274 0C228.3 0 182.7 0 137 0C91.3 0 45.7 0 22.8 0L0 0Z" fill="#0066FF" stroke-linecap="round" stroke-linejoin="miter"></path></svg>